<svg xmlns="http://www.w3.org/2000/svg" viewBox="-18.0 7.4 534.8 119.2" role="img" aria-label="Eunavia"><g transform="translate(0.0,25.40) scale(1.3)"><circle cx="32" cy="15.5" r="6.2" fill="#0F7A6B"/><path d="M32,41 L32,31" stroke="#0F7A6B" stroke-width="4.8" stroke-linecap="round"/><path d="M32,32 C28,28 24,24 20.5,21.5" fill="none" stroke="#0F7A6B" stroke-width="4.8" stroke-linecap="round"/><path d="M32,32 C36,28 40,24 43.5,21.5" fill="none" stroke="#0F7A6B" stroke-width="4.8" stroke-linecap="round"/><path d="M13,43 Q32,59 51,43" fill="none" stroke="#0F7A6B" stroke-width="5" stroke-linecap="round"/></g><g transform="translate(113.20,100.0) scale(0.09428571428571429,-0.09428571428571429)"><path d="M189.0 603V399H429.0V306H189.0V93H459.0V0H75.0V696H459.0V603Z M1110.0 551V0H996.0V65Q969.0 31 925.5 11.5Q882.0 -8 833.0 -8Q768.0 -8 716.5 19.0Q665.0 46 635.5 99.0Q606.0 152 606.0 227V551H719.0V244Q719.0 170 756.0 130.5Q793.0 91 857.0 91Q921.0 91 958.5 130.5Q996.0 170 996.0 244V551Z M1776.0 325V0H1663.0V308Q1663.0 382 1626.0 421.5Q1589.0 461 1525.0 461Q1461.0 461 1423.5 421.5Q1386.0 382 1386.0 308V0H1272.0V551H1386.0V488Q1414.0 522 1457.5 541.0Q1501.0 560 1550.0 560Q1615.0 560 1666.5 533.0Q1718.0 506 1747.0 453.0Q1776.0 400 1776.0 325Z M2155.0 560Q2220.0 560 2268.5 534.5Q2317.0 509 2346.0 471V551H2461.0V0H2346.0V82Q2317.0 43 2267.0 17.0Q2217.0 -9 2153.0 -9Q2082.0 -9 2023.0 27.5Q1964.0 64 1929.5 129.5Q1895.0 195 1895.0 278Q1895.0 361 1929.5 425.0Q1964.0 489 2023.5 524.5Q2083.0 560 2155.0 560ZM2179.0 461Q2135.0 461 2097.0 439.5Q2059.0 418 2035.5 376.5Q2012.0 335 2012.0 278Q2012.0 221 2035.5 178.0Q2059.0 135 2097.5 112.5Q2136.0 90 2179.0 90Q2223.0 90 2261.0 112.0Q2299.0 134 2322.5 176.5Q2346.0 219 2346.0 276Q2346.0 333 2322.5 375.0Q2299.0 417 2261.0 439.0Q2223.0 461 2179.0 461Z M2836.0 102 2992.0 551H3113.0L2903.0 0H2767.0L2558.0 551H2680.0Z M3196.0 697Q3196.0 728 3217.0 749.0Q3238.0 770 3269.0 770Q3299.0 770 3320.0 749.0Q3341.0 728 3341.0 697Q3341.0 666 3320.0 645.0Q3299.0 624 3269.0 624Q3238.0 624 3217.0 645.0Q3196.0 666 3196.0 697ZM3325.0 551V0H3211.0V551Z M3709.0 560Q3774.0 560 3822.5 534.5Q3871.0 509 3900.0 471V551H4015.0V0H3900.0V82Q3871.0 43 3821.0 17.0Q3771.0 -9 3707.0 -9Q3636.0 -9 3577.0 27.5Q3518.0 64 3483.5 129.5Q3449.0 195 3449.0 278Q3449.0 361 3483.5 425.0Q3518.0 489 3577.5 524.5Q3637.0 560 3709.0 560ZM3733.0 461Q3689.0 461 3651.0 439.5Q3613.0 418 3589.5 376.5Q3566.0 335 3566.0 278Q3566.0 221 3589.5 178.0Q3613.0 135 3651.5 112.5Q3690.0 90 3733.0 90Q3777.0 90 3815.0 112.0Q3853.0 134 3876.5 176.5Q3900.0 219 3900.0 276Q3900.0 333 3876.5 375.0Q3853.0 417 3815.0 439.0Q3777.0 461 3733.0 461Z" fill="#10242B"/></g></svg>